PathFileType	4	(X/Y/Z)	Patient4_TMGait_0pt2_03_left_22.trc.trc
DataRate	CameraRate	NumFrames	NumMarkers	Units	OrigDataRate	OrigDataStartFrame	OrigNumFrames
47.619047619048	47.619047619048	4	33	mm	47.619047619048	18	       141
Frame#	Time	Sacral			L.Shoulder			Chest			R.Shoulder			Neck			R.ASIS			L.ASIS			R.Thigh.Superior			R.Thigh.Lateral			R.Thigh.Inferior			R.Patella			L.Thigh.Superior			L.Thigh.Lateral			L.Thigh.Inferior			L.Patella			L.Shank.Superior			L.Shank.Lateral			L.Shank.Inferior			R.Shank.Superior			R.Shank.Lateral			R.Shank.Inferior			R.Heel			R.Midfoot.Superior			R.Midfoot.Lateral			R.Toe			L.Heel			L.Midfoot.Lateral			L.Midfoot.Superior			L.Toe			L.Elbow			L.Wrist			R.Elbow			R.Wrist			
		X1	Y1	Z1	X2	Y2	Z2	X3	Y3	Z3	X4	Y4	Z4	X5	Y5	Z5	X6	Y6	Z6	X7	Y7	Z7	X8	Y8	Z8	X9	Y9	Z9	X10	Y10	Z10	X11	Y11	Z11	X12	Y12	Z12	X13	Y13	Z13	X14	Y14	Z14	X15	Y15	Z15	X16	Y16	Z16	X17	Y17	Z17	X18	Y18	Z18	X19	Y19	Z19	X20	Y20	Z20	X21	Y21	Z21	X22	Y22	Z22	X23	Y23	Z23	X24	Y24	Z24	X25	Y25	Z25	X26	Y26	Z26	X27	Y27	Z27	X28	Y28	Z28	X29	Y29	Z29	X30	Y30	Z30	X31	Y31	Z31	X32	Y32	Z32	X33	Y33	Z33	

18	46.347000000000	864.623618201156	1002.227735038334	628.956812473330	988.726973377963	1429.821147389602	416.342499765236	1129.346979563522	1361.721225133984	545.236174810586	1093.868273082128	1436.814509072515	732.863900624973	1003.920548473331	1489.201014195061	572.711086407170	1111.900440172140	932.644178009595	688.938286253885	1039.035018681615	964.009428073809	425.345504808601	1127.996065881653	725.352050149301	640.142674784710	1057.231369927339	614.589787258695	712.694186828945	1106.839456417037	563.650425705333	614.045790577385	1100.991648068052	471.647542843940	617.399861256334	1124.304395575445	782.155546067335	437.093636952190	1063.341496529774	646.051109691663	353.770339375337	1178.399927456946	595.280137097122	406.751139056941	1202.191649001251	522.812315983952	394.675527040670	1168.300379361421	450.287381144964	376.622689666825	1070.866870825581	348.570005640898	313.387253496816	1131.407825392135	224.903418078556	350.336974629512	1055.868282323886	386.091817652553	628.798341777671	981.587832813788	292.846623613179	703.626611675777	987.926225845279	197.192139038309	632.135484427738	824.160244125530	45.934739200703	624.356385043731	999.961665071412	96.221641228438	639.115742562141	915.505609337135	37.625487531596	687.868279530884	1121.441620362041	40.857382417870	652.571888373443	1006.907905735494	66.371337602471	370.913768280466	1077.998066091388	65.966060623912	288.585373957014	1164.064204411556	123.845113833023	314.146266757978	1287.234096049002	72.099650589766	277.510946528825	821.728953933811	1116.777589761223	353.729548865838	752.016945551712	869.542776750630	402.971145724334	1294.386264340159	1169.576784367418	844.761177236386	1526.655983902454	1250.120660095967	776.211344420570	
19	46.368000000000	864.358620909990	1002.769633714181	627.035391358387	987.018739987971	1430.393753455659	414.046117273119	1128.494575523881	1362.101276420738	541.981915842022	1094.186538780721	1437.124920501208	729.769444671142	1003.276383009165	1489.691251715882	570.199214798913	1111.695770519070	932.932394222204	685.798906125632	1037.503931298079	963.978106988269	422.454669128458	1125.139189789634	725.047925865263	638.173560198468	1053.358736440413	615.282189270524	711.820812751818	1101.880675412580	563.385640460238	613.403175141317	1094.834746215531	471.946660279252	617.277172297231	1119.187019114247	778.617531313218	432.565655517254	1053.795299868253	643.125617026805	351.603459444170	1168.735744460671	591.151401167538	403.117926327622	1191.864665336234	520.665510580216	392.330273233857	1161.520140634410	448.483360928412	375.042464220296	1069.628779819735	340.977832260796	312.086393359276	1136.734289362116	220.512913656677	350.298524170236	1050.362014714529	386.452855821280	628.814461750899	976.228614654818	293.026993409781	703.617888218052	983.170006892654	197.352626363861	632.207054968788	819.828692129632	45.719835632445	624.385821457787	995.650718899266	96.179842061990	639.087679145727	911.194841087946	37.546293384686	687.939185714818	1117.134353216479	40.984531475580	652.554782140144	1019.975069456856	55.909312915673	370.858543347282	1092.387941173238	57.529297878972	289.484697364015	1175.623654277060	119.854946989879	315.503399752274	1302.036150048525	73.043795909150	281.335688836987	819.907412673498	1117.344297528717	353.158710174437	751.203712880743	869.895655735474	403.626119929108	1300.402558718455	1174.824630973572	838.738544006798	1528.924286443748	1264.512159923053	769.671695290597	
20	46.389000000000	864.191896923203	1002.790847597736	624.636961872723	985.673192106653	1430.386664112783	411.142698664274	1127.724262296023	1362.061124170552	538.489744932235	1094.136168555453	1437.027517175852	726.352334574177	1002.624263136188	1489.755617432223	567.137735528167	1111.594712940036	932.950891702197	682.652325920194	1036.391987366858	963.411993919178	419.463117288698	1122.762449386982	724.534580448966	636.126813974501	1049.892372226389	615.715703455213	710.681331146533	1097.447646645283	562.926606588163	612.544006696788	1089.192942209976	471.970007392971	616.872548590683	1114.784439285354	774.801094376621	428.170732354570	1045.079679704146	639.910552447782	349.756321894895	1160.055813329701	586.925689992095	399.780581974695	1182.246150936525	518.089484748013	390.320727645293	1154.968703187222	446.301022086030	373.741331236649	1067.698985259610	334.161747062881	311.541517559495	1140.154475628519	216.708593635228	350.900464456190	1045.254737336548	386.567980676504	628.607562328646	971.103303135732	293.090466740613	703.424896757590	978.571169679281	197.360993420025	632.169337940468	815.497516859396	45.460347611864	624.377924025652	991.347839306129	96.136784259550	639.024297191381	906.878554225852	37.463038695912	687.990594811606	1112.822938965191	41.131214525102	652.537704041588	1029.874160880547	47.862508119656	371.846840692620	1103.322580827819	50.772196181996	291.275688685704	1184.217147041116	116.411380850023	317.592919690729	1312.976923214766	73.280855936690	285.639680599704	819.333968324194	1116.730915658757	351.622859517173	752.067300602742	868.880942975395	402.950545528563	1304.854050809536	1178.703307621441	832.709165340866	1530.131070490736	1275.758382695104	763.504388175578	
21	46.410000000000	864.152632382723	1002.404424917912	621.796330872773	984.635669076881	1429.901984030902	407.636312899412	1127.030715574104	1361.715152563005	534.725513754887	1093.758408807408	1436.647078173426	722.590645072435	1001.945092811721	1489.482537805181	563.526773941095	1111.641325810371	932.774321618368	679.481787341033	1035.713005762174	962.446681004518	416.365051917695	1120.858178318131	723.842684328849	633.982276396700	1046.808664398349	615.934600412500	709.266418545867	1093.497169752086	562.302720444498	611.451891723849	1084.027209048473	471.758369211097	616.170791287363	1111.295458627312	770.985508555746	423.998815959197	1037.553410022905	636.646368676755	348.186078612928	1152.677332636529	582.871744642906	396.747414826364	1173.676038124228	515.294196124272	388.600835135780	1148.941261301380	443.882722772077	372.619439949802	1065.241488412896	328.256303886700	311.530406754425	1141.775718667086	213.438387646888	351.892699608217	1040.501577347944	386.481966925335	628.168300152764	966.202802932520	293.075495124963	703.053053862769	974.109739935203	197.250864072224	632.019683899552	811.169234812088	45.170080758016	624.337916996537	987.052722880077	96.097376316137	638.934270813515	902.560033549808	37.375004065115	688.020468672790	1108.510245277627	41.291819339108	652.520474201332	1036.481208352887	42.085993323153	373.556085691461	1110.694860521985	45.566537552116	293.610877842007	1189.854020691455	113.383453025449	320.096493304052	1320.132452956110	72.608228456582	290.029643427588	819.888322467871	1115.117082277525	349.087150346259	754.478952033723	866.698026066939	400.865928024836	1307.806738630577	1181.295055024927	826.774826106618	1530.467310184440	1284.010567957571	757.704943786113	
